<?xml version="1.0" encoding="UTF-8"?>
<!DOCTYPE svg PUBLIC "-//W3C//DTD SVG 1.1//EN" "http://www.w3.org/Graphics/SVG/1.1/DTD/svg11.dtd">
<!-- Creator: CorelDRAW 2018 (64-Bit) -->
<svg xmlns="http://www.w3.org/2000/svg" xml:space="preserve" width="800px" height="800px" version="1.1" style="shape-rendering:geometricPrecision; text-rendering:geometricPrecision; image-rendering:optimizeQuality; fill-rule:evenodd; clip-rule:evenodd"
viewBox="0 0 800 800"
 xmlns:xlink="http://www.w3.org/1999/xlink">
 <defs>
  <style type="text/css">
   <![CDATA[
    .fil0 {fill:#303030}
   ]]>
  </style>
 </defs>
 <g id="Слой_x0020_1">
  <metadata id="CorelCorpID_0Corel-Layer"/>
  <path class="fil0" d="M750 400c0,10.99 -4.36,20.93 -11.68,28.08 -7.15,7.32 -17.09,11.68 -28.25,11.68l-270.14 0 0 270.31c0,21.97 -17.96,39.93 -39.93,39.93 -10.99,0 -20.93,-4.53 -28.25,-11.69 -7.15,-7.32 -11.68,-17.26 -11.68,-28.25l0 -270.3 -270.14 0c-22.15,0 -39.93,-17.79 -39.93,-39.76 0,-10.99 4.36,-21.1 11.68,-28.25 7.15,-7.16 17.09,-11.69 28.25,-11.69l270.13 0 0 -270.3c0,-21.97 17.96,-39.76 39.94,-39.76 10.98,0 20.92,4.53 28.25,11.68 7.15,7.15 11.68,17.09 11.68,28.08l0 270.3 270.13 0c22.15,0 39.94,17.79 39.94,39.94z"/>
 </g>
</svg>
