<?xml version="1.0" encoding="UTF-8"?>
<!DOCTYPE svg PUBLIC "-//W3C//DTD SVG 1.1//EN" "http://www.w3.org/Graphics/SVG/1.1/DTD/svg11.dtd">
<!-- Creator: CorelDRAW 2018 (64-Bit) -->
<svg xmlns="http://www.w3.org/2000/svg" xml:space="preserve" width="800px" height="800px" version="1.1" style="shape-rendering:geometricPrecision; text-rendering:geometricPrecision; image-rendering:optimizeQuality; fill-rule:evenodd; clip-rule:evenodd"
viewBox="0 0 800 800"
 xmlns:xlink="http://www.w3.org/1999/xlink">
 <defs>
  <style type="text/css">
   <![CDATA[
    .fil0 {fill:#231F20}
   ]]>
  </style>
 </defs>
 <g id="Слой_x0020_1">
  <metadata id="CorelCorpID_0Corel-Layer"/>
  <g id="pen">
   <path class="fil0" d="M463.39 157.86c-6.15,-4.95 -13.81,-7.65 -21.71,-7.65 -10.05,0 -19.61,4.37 -26.18,11.97l-235.99 283.59c-38.08,45.73 -62.3,101.59 -69.54,160.67l-12.39 99.55c-0.08,0.62 -0.12,1.25 -0.12,1.88 0,4.17 1.84,8.13 5.03,10.81 2.58,2.19 5.84,3.41 9.23,3.47l4.32 0 95.78 -30.29c56.34,-18.07 106.45,-51.97 144.23,-97.5l238.6 -284.18c5,-6.04 7.74,-13.65 7.74,-21.5 0,-10.11 -4.54,-19.69 -12.35,-26.1l-126.65 -104.72zm239.16 286.18l-367.54 131.26c-34.55,41.45 -80.4,72.27 -131.85,88.58l-74.14 23.37 9.53 -76.46c6.86,-53.1 28.84,-103.21 63.18,-144.24l235.98 -283.59c0.65,-0.22 1.33,-0.33 2.02,-0.33 0.69,0 1.37,0.11 2.02,0.33 0.52,-0.15 1.05,-0.23 1.59,-0.23 0.53,0 1.07,0.08 1.58,0.23l125.5 101.83c1.21,0.93 1.91,2.37 1.91,3.89 0,1.1 -0.37,2.17 -1.05,3.04l131.27 152.32z"/>
   <path class="fil0" d="M630.42 122.37l-35.77 -29.13c-11.41,-9.69 -25.92,-15.02 -40.89,-15.02 -18.91,0 -36.84,8.48 -48.83,23.1l-23.94 28.84c-2.08,2.57 -3.22,5.78 -3.22,9.08 0,4.3 1.92,8.38 5.24,11.12 2.56,2.22 5.85,3.45 9.25,3.45 4.24,0 8.26,-1.91 10.94,-5.18l23.94 -28.85c6.63,-7.97 16.48,-12.59 26.84,-12.59 8.11,0 15.96,2.82 22.21,7.97l35.19 28.85c7.87,6.63 12.42,16.41 12.42,26.7 0,8.16 -2.86,16.07 -8.09,22.35l-23.94 28.84c-2.16,2.59 -3.35,5.86 -3.35,9.24 0,7.96 6.46,14.42 14.43,14.42 0.05,0 0.11,0 0.17,0 0,0 0.01,0 0.01,0 4.24,0 8.27,-1.91 10.95,-5.19l23.94 -28.85c9.45,-11.47 14.62,-25.88 14.62,-40.73 0,-18.58 -8.07,-36.26 -22.12,-48.42z"/>
   <path class="fil0" d="M262.02 248.73c0.01,0 0.02,0 0.03,0 4.32,0 8.43,-1.9 11.22,-5.19l110.21 -132.13c2.29,-2.9 5.58,-4.86 9.23,-5.48 0.55,-0.06 1.1,-0.09 1.66,-0.09 3.52,0 6.92,1.26 9.59,3.55l21.35 17.89c2.59,2.15 5.86,3.33 9.23,3.33 7.97,0 14.44,-6.46 14.44,-14.44 0,-4.29 -1.91,-8.36 -5.21,-11.11l-21.35 -17.88c-7.94,-6.54 -17.93,-10.12 -28.23,-10.12 -0.49,0 -1,0.01 -1.48,0.02 -11.32,1.31 -21.68,7.01 -28.85,15.87l-112.8 132.13c-2.23,2.56 -3.45,5.85 -3.45,9.25 0,4.24 1.9,8.26 5.18,10.94 2.58,2.18 5.85,3.4 9.23,3.46l0 0z"/>
  </g>
 </g>
</svg>
