<?xml version="1.0" encoding="UTF-8"?>
<!DOCTYPE svg PUBLIC "-//W3C//DTD SVG 1.1//EN" "http://www.w3.org/Graphics/SVG/1.1/DTD/svg11.dtd">
<!-- Creator: CorelDRAW 2018 (64-Bit) -->
<svg xmlns="http://www.w3.org/2000/svg" xml:space="preserve" width="800px" height="800px" version="1.1" style="shape-rendering:geometricPrecision; text-rendering:geometricPrecision; image-rendering:optimizeQuality; fill-rule:evenodd; clip-rule:evenodd"
viewBox="0 0 800 800"
 xmlns:xlink="http://www.w3.org/1999/xlink">
 <defs>
  <style type="text/css">
   <![CDATA[
    .fil0 {fill:#303030}
   ]]>
  </style>
 </defs>
 <g id="Слой_x0020_1">
  <metadata id="CorelCorpID_0Corel-Layer"/>
  <path class="fil0" d="M647.49 152.51c7.77,7.77 11.71,17.88 11.59,28.12 0.12,10.23 -3.82,20.34 -11.71,28.23l-191.02 191.02 191.14 191.13c15.53,15.54 15.54,40.94 0,56.48 -7.77,7.77 -18.01,11.59 -28.24,11.71 -10.24,-0.12 -20.47,-3.95 -28.24,-11.72l-191.13 -191.13 -191.01 191.02c-15.67,15.66 -40.82,15.65 -56.36,0.12 -7.76,-7.77 -11.84,-18 -11.72,-28.24 0,-10.12 3.83,-20.35 11.72,-28.24l191.01 -191.01 -191.13 -191.13c-15.54,-15.54 -15.42,-40.82 0.12,-56.35 7.77,-7.77 18,-11.6 28.24,-11.72 10.11,0 20.34,3.83 28.11,11.59l191.14 191.14 191.01 -191.01c15.66,-15.67 40.82,-15.67 56.48,-0.01z"/>
 </g>
</svg>
